<?xml version="1.0" encoding="iso-8859-1"?>
<!-- Generator: Adobe Illustrator 30.2.1, SVG Export Plug-In . SVG Version: 9.03 Build 0)  -->
<svg version="1.1" id="Layer_1" xmlns="http://www.w3.org/2000/svg" xmlns:xlink="http://www.w3.org/1999/xlink" x="0px" y="0px"
	 viewBox="0 0 64.407 100" style="enable-background:new 0 0 64.407 100;" xml:space="preserve">
<g>
	<path style="stroke:#000000;stroke-miterlimit:10;" d="M62.943,28.815c0.809,0,1.465-0.655,1.465-1.465V14.407
		c0-0.388-0.154-0.761-0.429-1.035L51.036,0.429C50.761,0.154,50.388,0,50,0H3.082C1.382,0,0,1.383,0,3.082V27.35
		c0,0.81,0.656,1.465,1.465,1.465h3.389v6.778H1.465C0.656,35.593,0,36.248,0,37.057v12.689c0,0.81,0.656,1.465,1.465,1.465
		c0.809,0,1.465-0.655,1.465-1.465V38.522h3.389c0.809,0,1.465-0.656,1.465-1.465V27.35c0-0.809-0.656-1.465-1.465-1.465H2.93V3.082
		c0-0.084,0.069-0.153,0.152-0.153h46.311l12.084,12.084v10.871h-3.389c-0.809,0-1.465,0.656-1.465,1.465v9.708
		c0,0.809,0.656,1.465,1.465,1.465h3.389v58.395c0,0.085-0.069,0.153-0.153,0.153H3.082c-0.084,0-0.152-0.069-0.152-0.153v-9.86H4.7
		c0.809,0,1.465-0.656,1.465-1.465c0-0.809-0.656-1.465-1.465-1.465H2.93V55.607c0-0.809-0.656-1.465-1.465-1.465
		C0.656,54.142,0,54.798,0,55.607v41.311C0,98.618,1.382,100,3.082,100h58.243c1.7,0,3.082-1.383,3.082-3.082v-59.86
		c0-0.809-0.656-1.465-1.465-1.465h-3.389v-6.778H62.943L62.943,28.815z"/>
	<path style="stroke:#000000;stroke-miterlimit:10;" d="M11.018,44.994h42.371v45.605H11.018V44.994L11.018,44.994z M8.089,92.064
		c0,0.809,0.656,1.465,1.465,1.465h45.3c0.809,0,1.465-0.656,1.465-1.465V43.529c0-0.809-0.656-1.465-1.465-1.465h-45.3
		c-0.809,0-1.465,0.656-1.465,1.465V92.064L8.089,92.064z"/>
	<path style="stroke:#000000;stroke-miterlimit:10;" d="M46.917,84.128H17.49v-3.541h29.427L46.917,84.128L46.917,84.128
		L46.917,84.128z M48.382,77.657H16.026c-0.81,0-1.465,0.655-1.465,1.465v6.471c0,0.809,0.655,1.465,1.465,1.465h32.357
		c0.809,0,1.465-0.656,1.465-1.465v-6.471C49.847,78.312,49.191,77.657,48.382,77.657L48.382,77.657z"/>
	<path style="stroke:#000000;stroke-miterlimit:10;" d="M46.917,71.185h-3.542v-3.542h3.542V71.185L46.917,71.185z M48.382,64.713
		H41.91c-0.809,0-1.465,0.656-1.465,1.465v6.471c0,0.809,0.656,1.465,1.465,1.465h6.471c0.809,0,1.465-0.656,1.465-1.465v-6.471
		C49.847,65.369,49.191,64.713,48.382,64.713L48.382,64.713z"/>
	<path style="stroke:#000000;stroke-miterlimit:10;" d="M16.026,51.465h6.471c0.809,0,1.465-0.656,1.465-1.465
		c0-0.809-0.656-1.465-1.465-1.465h-6.471c-0.81,0-1.465,0.656-1.465,1.465C14.561,50.809,15.216,51.465,16.026,51.465
		L16.026,51.465z"/>
	<path style="stroke:#000000;stroke-miterlimit:10;" d="M16.026,57.936h12.942c0.81,0,1.465-0.656,1.465-1.465
		c0-0.809-0.655-1.465-1.465-1.465H16.026c-0.81,0-1.465,0.656-1.465,1.465C14.561,57.28,15.216,57.936,16.026,57.936L16.026,57.936
		z"/>
	<path style="stroke:#000000;stroke-miterlimit:10;" d="M11.018,9.401h3.542v10.013h-3.542V9.401L11.018,9.401z M9.554,22.343h6.472
		c0.809,0,1.465-0.655,1.465-1.465V7.936c0-0.809-0.656-1.465-1.465-1.465H9.554c-0.809,0-1.465,0.656-1.465,1.465v12.942
		C8.089,21.688,8.745,22.343,9.554,22.343L9.554,22.343z"/>
	<path style="stroke:#000000;stroke-miterlimit:10;" d="M23.962,9.401h3.541v10.013h-3.541V9.401L23.962,9.401z M28.968,22.343
		c0.809,0,1.465-0.655,1.465-1.465V7.936c0-0.809-0.656-1.465-1.465-1.465h-6.471c-0.81,0-1.465,0.656-1.465,1.465v12.942
		c0,0.81,0.655,1.465,1.465,1.465H28.968L28.968,22.343z"/>
	<path style="stroke:#000000;stroke-miterlimit:10;" d="M36.904,9.401h3.542v10.013h-3.542V9.401L36.904,9.401z M41.91,22.343
		c0.81,0,1.465-0.655,1.465-1.465V7.936c0-0.809-0.655-1.465-1.465-1.465h-6.471c-0.808,0-1.465,0.656-1.465,1.465v12.942
		c0,0.81,0.656,1.465,1.465,1.465H41.91L41.91,22.343z"/>
</g>
</svg>
